PathFileType  4	(X/Y/Z) C:\Users\antoi\Documents\MyRepositories\mobilecap\ResultsAnalysis
DataRate	CameraRate	NumFrames	NumMarkers	Units	OrigDataRate	OrigDataStartFrame	OrigNumFrames
100.0	100.0	4	51	mm	100.0	71	141
Frame#	Time	r_knee			r_shank_antsup			r_ankle			r_calc			r_5meta			r_toe			L_knee			L_shank_antsup			L_ankle			L_calc			L_5meta			L_toe			r_sh2			r_sh3			r_sh4			L_sh2			L_sh3			r_thigh1			r_thigh2			r_thigh3			r_thigh4			r_thigh5			L_thigh1			L_thigh2			L_thigh3			L_thigh4			r.ASIS			r.PSIS			L.ASIS			L.PSIS			C7			R_Shoulder			L_Shoulder			R_Sternum			L_Sternum			R_humerus			R_elbow_med			R_elbow_lat			R_forearm			R_wrist_radius			R_wrist_ulna			L_humerus			L_elbow_med			L_elbow_lat			L_forearm			L_wrist_radius			L_wrist_ulna			R_HJC			L_HJC			R_HJC_reg			L_HJC_reg			
		X1	Y1	Z1	X2	Y2	Z2	X3	Y3	Z3	X4	Y4	Z4	X5	Y5	Z5	X6	Y6	Z6	X7	Y7	Z7	X8	Y8	Z8	X9	Y9	Z9	X10	Y10	Z10	X11	Y11	Z11	X12	Y12	Z12	X13	Y13	Z13	X14	Y14	Z14	X15	Y15	Z15	X16	Y16	Z16	X17	Y17	Z17	X18	Y18	Z18	X19	Y19	Z19	X20	Y20	Z20	X21	Y21	Z21	X22	Y22	Z22	X23	Y23	Z23	X24	Y24	Z24	X25	Y25	Z25	X26	Y26	Z26	X27	Y27	Z27	X28	Y28	Z28	X29	Y29	Z29	X30	Y30	Z30	X31	Y31	Z31	X32	Y32	Z32	X33	Y33	Z33	X34	Y34	Z34	X35	Y35	Z35	X36	Y36	Z36	X37	Y37	Z37	X38	Y38	Z38	X39	Y39	Z39	X40	Y40	Z40	X41	Y41	Z41	X42	Y42	Z42	X43	Y43	Z43	X44	Y44	Z44	X45	Y45	Z45	X46	Y46	Z46	X47	Y47	Z47	X48	Y48	Z48	X49	Y49	Z49	X50	Y50	Z50	X51	Y51	Z51	

71	0.70000000	589.64900	518.10168	-26.46198	552.77561	438.92565	-15.34834	267.64676	220.09862	-79.85437	197.81874	245.74211	-128.59934	295.11736	59.98501	-77.12032	328.03213	64.11387	-139.19138	773.33464	528.74116	-322.77692	830.63097	420.66840	-322.75689	844.45980	92.98853	-281.35484	774.64902	54.46298	-242.44232	1020.12260	66.77447	-238.49692	1003.50179	34.79137	-303.14927	468.81410	362.24463	-20.96435	498.76378	497.13975	-9.39478	408.76686	425.06776	-24.24615	743.32401	408.51464	-348.39981	770.28504	290.93602	-337.87060	686.90765	829.77999	-4.45396	697.02265	720.07656	-9.58558	636.03237	690.30815	5.23938	574.50356	821.20089	-18.87422	585.34574	704.03509	-16.68712	774.27516	858.90756	-353.59111	810.57161	725.46251	-344.98714	663.37856	824.27515	-371.28432	707.85946	691.29834	-361.21254	725.85662	1026.72679	-54.20572	538.85992	1069.00187	-149.00641	751.84170	1037.69222	-313.97724	546.56487	1070.89143	-253.33640	521.71543	1574.01675	-214.07045	584.59866	1535.21833	-36.58292	597.84043	1532.07879	-375.82894	675.10547	1510.02407	-176.44086	677.76793	1505.98769	-230.86073	622.27636	1280.28129	75.27460	596.97372	1169.83986	22.33060	622.70508	1191.68078	100.03991	747.84112	1088.46077	100.94845	831.15928	1010.41864	81.07119	796.83743	993.22212	108.22666	568.07756	1268.19216	-453.16593	494.83561	1192.47610	-394.71359	531.88042	1187.17922	-457.66790	556.94804	1016.39285	-459.62597	567.39472	916.62246	-438.42718	535.62078	917.71089	-463.90013	642.79215	947.93695	-73.30154	666.88418	957.36993	-302.16248	657.04651	955.14161	-97.72436	669.74916	958.25340	-269.69148	
72	0.71000000	618.24983	517.39845	-24.13282	580.33434	439.57459	-13.31634	289.00789	231.25988	-78.35236	222.08832	263.05376	-127.29885	302.53572	68.61190	-76.76717	338.11446	69.71117	-137.50489	780.25640	529.96958	-323.52906	835.92049	420.85421	-323.37511	844.97212	92.90469	-281.44436	774.73917	54.66693	-242.48364	1020.55253	65.73013	-238.32429	1003.67183	34.02557	-303.13457	494.08500	365.39771	-19.27396	528.04561	499.31887	-7.06426	435.86541	429.85303	-22.20033	748.51794	409.86703	-349.19925	773.89438	291.94265	-338.43537	704.44643	830.90034	-3.98482	717.72786	721.46958	-7.80329	657.36095	689.97243	6.46527	592.45886	818.77558	-19.65147	606.70160	702.03935	-16.12597	785.35159	860.61626	-355.56743	820.26779	726.87579	-346.25558	673.76981	826.73359	-372.69825	717.12563	693.59512	-362.20205	739.08000	1027.46461	-56.23285	551.53535	1069.86867	-148.56131	763.40398	1040.52171	-315.90067	558.53357	1072.82757	-252.89201	534.85673	1575.71564	-215.52455	597.24505	1537.45923	-37.74661	611.65863	1533.53489	-376.92451	688.08406	1511.78862	-177.42409	690.88397	1507.61329	-231.78067	632.02164	1281.63843	73.84957	606.62058	1171.68929	19.92102	631.35480	1193.12855	98.28178	755.00777	1088.03702	100.50436	837.19710	1008.72911	81.44277	802.26097	992.11639	108.40649	585.82991	1269.32951	-454.93227	512.92344	1192.37797	-397.53112	550.72223	1187.77157	-460.05106	579.17679	1017.41619	-461.75067	591.87102	918.05581	-440.52302	560.04149	918.31003	-466.25691	656.39895	948.51427	-74.96848	678.54274	959.96308	-303.94804	670.38178	955.78982	-99.97923	681.91221	960.66591	-271.87892	
73	0.72000000	647.22317	517.38555	-22.32739	608.50289	440.84240	-11.83980	311.73927	242.29601	-77.04898	248.40117	279.58666	-126.42143	311.64325	78.09956	-76.48097	350.38852	75.97166	-135.38914	786.28497	530.98578	-324.15520	840.42936	420.99409	-323.84093	845.29210	92.88488	-281.40718	774.74976	54.73624	-242.48700	1020.78686	65.01376	-238.05958	1003.77159	33.66567	-303.06350	520.32956	368.88908	-17.97870	557.71201	501.80311	-5.29403	463.73078	434.72621	-20.54370	752.89691	411.04573	-349.64955	776.83665	292.85413	-338.66064	721.91448	832.23230	-3.69663	738.21930	723.32875	-6.39061	678.72471	690.11037	7.59308	610.26916	816.52734	-20.38815	628.05606	700.38658	-15.74192	795.82055	861.83232	-357.39681	829.11134	727.80135	-347.42310	683.42004	828.94606	-373.78679	725.47614	695.61461	-362.93575	751.93586	1028.33321	-58.08954	563.93177	1070.78397	-148.25081	774.81032	1043.10761	-317.66384	570.33074	1074.69211	-252.52199	547.91869	1577.48176	-216.82547	609.90152	1539.70129	-38.78280	625.42099	1535.06733	-377.84154	700.95050	1513.53451	-178.24526	703.90793	1509.23455	-232.54143	641.62167	1283.02660	72.51443	616.00656	1173.67822	17.68821	639.84237	1194.58196	96.52995	761.88381	1087.57128	100.07631	842.86244	1006.98663	81.80585	807.33230	990.96632	108.49315	603.67369	1270.65096	-456.66455	531.10217	1192.37975	-400.42500	569.69276	1188.53896	-462.46632	601.70079	1018.70187	-463.90225	616.80498	919.82690	-442.66058	584.89465	919.19064	-468.61378	669.60420	949.22611	-76.47038	690.02134	962.36324	-305.54142	683.34533	956.48958	-102.08019	693.88698	962.93394	-273.90119	
74	0.73000000	676.25019	518.20391	-21.02058	636.96671	442.78534	-10.86785	335.56826	252.99830	-75.95527	276.21182	294.82690	-126.05090	322.94011	88.03694	-76.14136	364.97818	82.52792	-132.86639	791.47153	531.78481	-324.74044	844.24937	421.07333	-324.26958	845.50051	92.89473	-281.29320	774.72929	54.74233	-242.47238	1020.91136	64.48252	-237.80536	1003.84147	33.50901	-302.99228	547.21208	372.73905	-16.99468	587.42627	504.67135	-4.11546	492.01444	439.68400	-19.27360	756.55251	412.04075	-349.86896	779.18985	293.65003	-338.67330	739.32121	833.88913	-3.67083	758.53210	725.71302	-5.42046	700.14391	690.85683	8.61888	628.01220	814.64114	-21.06422	649.41382	699.24864	-15.54605	805.63422	862.55700	-359.03336	837.11184	728.25840	-348.49812	692.38924	830.96807	-374.53669	732.97074	697.36508	-363.48238	764.50321	1029.42317	-59.67759	576.10450	1071.78112	-148.12859	786.15307	1045.32459	-319.19758	582.01443	1076.49508	-252.29618	560.89224	1579.29194	-217.98294	622.54200	1541.90458	-39.68762	639.11059	1536.66151	-378.59003	713.70506	1515.24360	-178.91544	716.82129	1510.83270	-233.14972	651.11956	1284.41987	71.27578	625.20720	1175.73812	15.64414	648.20261	1196.01738	94.80567	768.50253	1087.04579	99.67267	848.20429	1005.17031	82.17141	812.13843	989.70995	108.40607	621.57972	1272.14593	-458.35501	549.36635	1192.47102	-403.36693	588.77536	1189.46753	-464.88942	624.46842	1020.25785	-466.06274	642.06112	921.92356	-444.80966	610.09748	920.37172	-470.92341	682.42598	950.16541	-77.70912	701.40945	964.47923	-306.85349	696.03064	957.21914	-103.91574	705.77058	964.99755	-275.66422	
